<svg width="976" height="32769" viewBox="0 0 976 32769" fill="none" xmlns="http://www.w3.org/2000/svg">
<g filter="url(#filter0_d_716_4262)">
<rect x="69.8037" width="835.741" height="32628.7" fill="#00529B"/>
</g>
<path d="M395.849 25055.2L635.689 25129.7L635.689 25181.9L458.529 25230.2L635.689 25278.5L635.689 25330.8L395.849 25405.6L395.849 25355.2L588.678 25305.1L395.849 25254.2L395.849 25202.4L587.808 25153.6L395.849 25104L395.849 25055.2ZM395.849 24696.1L635.689 24770.5L635.689 24822.7L458.529 24871L635.689 24919.4L635.689 24971.6L395.849 25046.5L395.849 24996L588.678 24945.9L395.849 24895L395.849 24843.2L587.808 24794.4L395.849 24744.8L395.849 24696.1ZM395.849 24336.9L635.689 24411.3L635.689 24463.5L458.529 24511.8L635.689 24560.2L635.689 24612.4L395.849 24687.3L395.849 24636.8L588.678 24586.7L395.849 24535.8L395.849 24484L587.808 24435.2L395.849 24385.6L395.849 24336.9ZM638.736 24279.8C638.736 24288.7 635.689 24296.3 629.595 24302.4C623.501 24308.5 615.956 24311.5 606.96 24311.5C597.964 24311.5 590.42 24308.5 584.326 24302.4C578.232 24296.3 575.185 24288.7 575.185 24279.8C575.185 24271 578.232 24263.6 584.326 24257.6C590.419 24251.5 597.964 24248.4 606.96 24248.4C615.956 24248.4 623.501 24251.5 629.595 24257.6C635.689 24263.6 638.736 24271 638.736 24279.8ZM431.542 24145.2C419.934 24136.7 410.503 24125.3 403.248 24110.8C395.704 24096 391.931 24079.6 391.931 24061.6C391.931 24040.4 397.009 24021.2 407.166 24004.1C417.322 23987 431.832 23973.5 450.694 23963.6C469.266 23953.8 490.595 23948.8 514.68 23948.8C538.766 23948.8 560.385 23953.8 579.537 23963.6C598.4 23973.5 613.199 23987.2 623.936 24004.6C634.383 24021.7 639.606 24040.7 639.606 24061.6C639.606 24080.2 635.979 24096.7 628.724 24111.2C621.47 24125.4 612.184 24136.7 600.866 24145.2L635.689 24145.2L635.689 24194.8L313.58 24194.8L313.58 24145.2L431.542 24145.2ZM514.68 23999.3C498.14 23999.3 483.921 24002.8 472.023 24009.8C459.835 24016.5 450.694 24025.5 444.6 24036.8C438.216 24047.8 435.024 24059.7 435.024 24072.5C435.024 24084.9 438.216 24096.8 444.6 24108.2C450.984 24119.2 460.27 24128.2 472.458 24135.1C484.646 24141.8 499.01 24145.2 515.551 24145.2C532.092 24145.2 546.601 24141.8 559.079 24135.1C571.267 24128.2 580.553 24119.2 586.937 24108.2C593.321 24096.8 596.513 24084.9 596.513 24072.5C596.513 24059.7 593.321 24047.8 586.937 24036.8C580.263 24025.5 570.687 24016.5 558.209 24009.8C545.731 24002.8 531.221 23999.3 514.68 23999.3ZM431.542 23850.2C419.934 23841.7 410.503 23830.3 403.248 23815.8C395.703 23801 391.931 23784.6 391.931 23766.6C391.931 23745.4 397.009 23726.2 407.166 23709.1C417.322 23692 431.832 23678.5 450.694 23668.6C469.266 23658.8 490.595 23653.8 514.68 23653.8C538.766 23653.8 560.385 23658.8 579.537 23668.6C598.4 23678.5 613.199 23692.1 623.936 23709.6C634.383 23726.7 639.606 23745.7 639.606 23766.6C639.606 23785.2 635.979 23801.7 628.724 23816.2C621.47 23830.4 612.184 23841.7 600.866 23850.2L635.689 23850.2L635.689 23899.8L313.58 23899.8L313.58 23850.2L431.542 23850.2ZM514.68 23704.3C498.14 23704.3 483.921 23707.8 472.023 23714.8C459.835 23721.5 450.694 23730.5 444.6 23741.8C438.216 23752.8 435.024 23764.7 435.024 23777.5C435.024 23789.9 438.216 23801.8 444.6 23813.2C450.984 23824.2 460.27 23833.2 472.458 23840.1C484.646 23846.8 499.01 23850.2 515.551 23850.2C532.092 23850.2 546.601 23846.8 559.079 23840.1C571.267 23833.2 580.553 23824.2 586.937 23813.2C593.321 23801.8 596.513 23789.9 596.513 23777.5C596.513 23764.7 593.321 23752.8 586.937 23741.8C580.263 23730.5 570.687 23721.5 558.209 23714.8C545.731 23707.8 531.221 23704.3 514.68 23704.3ZM591.29 23512.1L395.849 23444.2L395.849 23391.5L635.689 23482.9L635.689 23542.1L395.849 23633.1L395.849 23580L591.29 23512.1ZM514.68 23370.5C490.595 23370.5 469.266 23365.6 450.694 23355.7C432.122 23345.6 417.758 23331.9 407.601 23314.8C397.154 23297.4 391.931 23278.2 391.931 23257.3C391.931 23238.5 395.703 23222.1 403.248 23208.2C410.503 23193.9 419.644 23182.6 430.671 23174.2L395.849 23174.2L395.849 23124.1L635.689 23124.1L635.689 23174.2L599.996 23174.2C611.313 23182.6 620.744 23194.1 628.289 23208.6C635.834 23223.1 639.606 23239.6 639.606 23258.2C639.606 23278.8 634.383 23297.7 623.936 23314.8C613.199 23331.9 598.4 23345.6 579.537 23355.7C560.385 23365.6 538.766 23370.5 514.68 23370.5ZM515.551 23174.2C499.01 23174.2 484.646 23177.7 472.458 23184.6C460.27 23191.3 450.984 23200.2 444.6 23211.2C438.216 23222.2 435.024 23234.1 435.024 23246.9C435.024 23259.7 438.216 23271.6 444.6 23282.6C450.694 23293.6 459.835 23302.6 472.023 23309.6C483.921 23316.2 498.14 23319.6 514.68 23319.6C531.221 23319.6 545.731 23316.2 558.209 23309.6C570.687 23302.6 580.263 23293.6 586.937 23282.6C593.321 23271.3 596.513 23259.4 596.513 23246.9C596.513 23234.1 593.321 23222.2 586.937 23211.2C580.553 23200.2 571.267 23191.3 559.079 23184.6C546.601 23177.7 532.092 23174.2 515.551 23174.2ZM638.736 23038.9C638.736 23047.9 635.689 23055.5 629.595 23061.6C623.501 23067.7 615.956 23070.7 606.96 23070.7C597.964 23070.7 590.419 23067.7 584.325 23061.6C578.232 23055.5 575.185 23047.9 575.185 23038.9C575.185 23030.2 578.232 23022.8 584.325 23016.7C590.419 23010.7 597.964 23007.6 606.96 23007.6C615.956 23007.6 623.501 23010.7 629.595 23016.7C635.689 23022.8 638.736 23030.2 638.736 23038.9ZM391.931 22663.6C391.931 22644.8 395.849 22627.9 403.684 22613.1C411.519 22598.1 423.126 22586.3 438.506 22577.9C453.886 22569.2 472.458 22564.8 494.222 22564.8L635.689 22564.8L635.689 22614L501.622 22614C480.148 22614 463.752 22619.4 452.435 22630.1C440.828 22640.9 435.024 22655.5 435.024 22674.1C435.024 22692.7 440.828 22707.5 452.435 22718.5C463.752 22729.2 480.148 22734.6 501.622 22734.6L635.689 22734.6L635.689 22783.8L501.622 22783.8C480.148 22783.8 463.752 22789.1 452.435 22799.9C440.828 22810.6 435.024 22825.3 435.024 22843.8C435.024 22862.4 440.828 22877.2 452.435 22888.2C463.752 22899 480.148 22904.4 501.622 22904.4L635.689 22904.4L635.689 22954L395.849 22954L395.849 22904.4L423.271 22904.4C413.405 22896.2 405.715 22885.9 400.201 22873.4C394.688 22861 391.931 22847.6 391.931 22833.4C391.931 22814.2 395.994 22797.1 404.119 22782C412.244 22766.9 423.997 22755.3 439.377 22747.2C424.867 22740 413.405 22728.6 404.989 22713.3C396.284 22697.9 391.931 22681.3 391.931 22663.6ZM514.245 22399L635.689 22321.5L635.689 22377.6L554.291 22429.4L635.689 22478.2L635.689 22530L517.727 22452.5L395.849 22530L395.849 22473.8L477.246 22422L395.849 22373.3L395.849 22321.5L514.245 22399Z" fill="white"/>
<path d="M233.471 27714.2L233.471 27708.7C237.662 27702.1 245.537 27699.6 252.06 27696C345.83 27646.2 439.559 27596.3 533.304 27546.4C578.973 27522.2 624.399 27497.6 670.192 27473.8L671.085 27473.8C673.665 27475.2 677.72 27476.3 677.36 27480C677.436 27504.2 677.485 27528.5 677.337 27552.7C677.571 27558.5 671.198 27560.1 667.093 27562.3C658.684 27566.7 650.488 27571.5 641.858 27575.5C630.265 27582.3 617.914 27587.6 606.334 27594.4C594.876 27599.6 584.249 27606.4 572.814 27611.7C565.894 27614.9 559.52 27619.2 552.591 27622.4C542.297 27627.2 532.761 27633.4 522.395 27638C510.219 27645 497.409 27650.8 485.23 27657.8C474.317 27662.7 464.262 27669.3 453.374 27674.2C445.885 27677.7 439.001 27682.3 431.49 27685.8C421.742 27690.3 412.775 27696.2 402.931 27700.5C399.123 27702.7 393.828 27704.1 392.303 27708.6C392.068 27711.5 391.337 27715.6 394.45 27717.2C406.639 27724.7 419.942 27730.3 432.292 27737.6C443.74 27742.8 454.364 27749.6 465.798 27754.8C472.444 27757.9 478.57 27762 485.192 27765.1C490.166 27767.5 495.124 27770 499.875 27772.8C508.306 27777.7 517.495 27781.3 525.89 27786.3C533.256 27790.7 541.303 27793.9 548.669 27798.2C556.27 27802.8 564.602 27806.1 572.23 27810.6C580.909 27815.8 590.395 27819.4 599.064 27824.6C606.43 27829 614.465 27832.1 621.831 27836.5C629.432 27841.1 637.764 27844.3 645.392 27848.9C653.561 27853.7 662.416 27857.3 670.725 27861.9C673.193 27863.5 676.292 27865 677.01 27868.1C677.853 27872.8 677.357 27877.7 677.42 27882.5C677.406 27901 677.347 27919.5 677.482 27938.1C677.42 27941.4 677.47 27945.4 674.569 27947.7C671.406 27948.5 667.983 27948.2 665.195 27946.5C522.905 27870.9 380.708 27795.1 238.443 27719.5C236.263 27718.3 234.824 27716.2 233.472 27714.2L233.471 27714.2ZM301.807 29159.2C296.317 29154 298.113 29146.1 297.927 29139.4C297.964 29071.9 297.927 29004.4 297.941 28936.9C297.269 28917.1 300.282 28897 307.265 28878.4C318.561 28847 343.93 28820 376.197 28809.9C388.435 28805.4 401.607 28804.4 414.503 28803.5C428.315 28804.3 442.353 28806 455.287 28811.2C470.426 28817.4 485.01 28826.4 494.744 28839.8C497.88 28843.1 499.209 28848.1 503.152 28850.4C509.625 28832.6 521.886 28817.2 536.854 28805.6C561.853 28786.6 594.937 28781.3 625.628 28784.5C645.864 28786.2 665.952 28792 683.378 28802.6C694.213 28809.6 704.145 28818.2 711.685 28828.8C728.798 28851.7 736.683 28880.2 739.931 28908.2C740.715 28914 740.292 28919.9 741.88 28925.5L741.88 29154C740.342 29155.9 738.632 29157.7 736.67 29159.2L301.806 29159.2M365.383 29083.4C368.036 29085.6 371.658 29085 374.833 29085.1C407.781 29084.9 440.738 29085.4 473.676 29084.9C476.196 29082.9 477.92 29079.8 477.744 29076.5C477.78 29032.9 477.694 28989.2 477.793 28945.6C478.055 28939.5 476.777 28933.5 475.935 28927.5C473.95 28914 468.555 28900.4 458.265 28890.9C451.792 28884.4 442.812 28881.5 434.133 28879.3C427.104 28878.8 420.045 28876.5 413.026 28878.5C401.149 28879.4 389.605 28884.2 380.787 28892.2C370.569 28903.5 365.684 28918.5 363.884 28933.3C363.414 28938.1 364.122 28942.9 363.18 28947.6C361.913 28953.4 362.521 28959.4 362.449 28965.3C362.409 29001.2 362.485 29037 362.398 29072.8C362.398 29076.5 363.428 29080.2 365.386 29083.4M543.875 29081C544.335 29082.5 545.202 29083.8 546.776 29084.3C551.886 29086.9 557.764 29086.4 563.318 29086.4C597.221 29086.3 631.125 29086.4 665.022 29086.3C669.872 29086.2 676.742 29083.6 676.146 29077.7C676.169 29031.6 676.12 28985.5 676.16 28939.4C676.318 28934.8 676.16 28930.2 675.316 28925.6C673.927 28909.4 670.665 28892.6 661.279 28878.9C653.466 28867.9 640.547 28861.9 627.537 28859.5C612.52 28856.4 596.808 28857.6 582.152 28861.9C570.844 28865.8 560.54 28873.5 555.059 28884.3C547.196 28898.5 544.842 28914.8 543.475 28930.8C543.488 28979.3 543.488 29027.9 543.475 29076.5C543.44 29078 543.573 29079.5 543.872 29081L543.875 29081ZM298.288 28709.3C297.445 28704.1 298.04 28698.9 297.941 28693.7C297.927 28622.1 297.977 28550.5 297.915 28478.8C299.578 28446.5 310.946 28413.6 334.137 28390.2C351.783 28372.4 375.999 28361.7 400.836 28359.1C410.67 28359.2 420.53 28358.7 430.35 28359.4C451.43 28362.5 472.659 28370.7 487.414 28386.5C492.114 28391 496.481 28395.8 499.653 28401.5C500.644 28402.7 501.14 28405.2 503.152 28404.5C510.591 28386.3 523.028 28369.9 539.235 28358.6C545.92 28353.7 553.458 28350.2 560.986 28346.9C576.126 28340.2 592.879 28338.9 609.199 28338C621.821 28338.8 634.556 28339.5 646.907 28342.5C668.433 28346.9 688.385 28358.1 703.736 28373.6C709.008 28380 714.29 28386.4 718.481 28393.5C730.855 28413.7 736.574 28437.1 739.647 28460.3C740.752 28466.8 740.157 28473.4 741.88 28479.8L741.88 28708.2C739.797 28711.7 736.511 28715.2 731.983 28714.7C590.607 28714.7 449.223 28714.7 307.847 28714.7C303.941 28714.9 300.269 28712.5 298.288 28709.3M362.867 28632.8C363.426 28635.1 364.293 28637.7 366.562 28639C369.701 28641.2 373.717 28640.6 377.325 28640.7C407.508 28640.5 437.691 28640.6 467.861 28640.6C471.794 28640.8 475.191 28638.2 477.434 28635.3C478.218 28626.4 477.523 28617.4 477.745 28608.5C477.722 28570.6 477.794 28532.8 477.722 28494.9C476.283 28482.2 474.619 28469 467.825 28457.9C462.642 28446.4 451.418 28439.1 439.798 28435.2C430.401 28432.3 420.468 28433.3 410.783 28433.3C403.913 28434.1 397.155 28436.3 390.98 28439.4C375.639 28448.3 367.184 28465.4 364.69 28482.5C363.004 28489.1 364.393 28496.1 363.004 28502.8C362.001 28508 362.497 28513.2 362.448 28518.4C362.408 28555 362.485 28591.6 362.398 28628.3C362.408 28629.8 362.557 28631.3 362.867 28632.8ZM543.898 28635.3C544.702 28638.9 548.597 28640.8 552.117 28640.6C587.681 28640.6 623.232 28640.6 658.784 28640.6C663.313 28640.6 668.036 28641.1 672.339 28639.3C675.379 28638.4 676.07 28634.7 676.133 28632C676.196 28585.1 676.084 28538.1 676.196 28491.2C676.507 28485 674.906 28478.9 674.621 28472.8C672.636 28457 668.062 28440.7 657.273 28428.5C647.538 28418.9 633.911 28414.2 620.445 28413.2C613.774 28411.9 606.94 28411.6 600.269 28413C585.166 28414.2 569.044 28419.5 559.61 28431.9C547.915 28447 545.212 28466.6 543.475 28485C543.489 28531.9 543.489 28578.9 543.475 28625.8C543.551 28628.9 543.214 28632.2 543.899 28635.3L543.898 28635.3ZM307.351 28335.3C302.812 28337.5 297.355 28333.1 297.914 28328.3C297.9 28305.2 298.026 28282.1 297.864 28259C297.728 28256.4 298.112 28253.4 300.742 28252C309.173 28246.5 318.261 28242.1 327.302 28237.7C333.081 28234.9 338.439 28231.4 344.218 28228.6C355.365 28223.5 365.717 28216.8 376.891 28211.7C388.484 28205 400.835 28199.6 412.419 28192.8C424.942 28187 436.675 28179.6 449.234 28173.9C458.015 28168.9 467.029 28164.3 476.068 28159.8C485.43 28154.1 495.7 28150 505.11 28144.4C512.03 28140.4 519.482 28137.5 526.326 28133.4C534.995 28128.2 544.495 28124.5 553.148 28119.3C561.831 28114.2 571.403 28110.7 579.846 28105.1C584.534 28102.6 584.548 28094.5 579.846 28092C571.39 28086.5 561.831 28083 553.148 28077.9C545.56 28073.3 537.237 28070 529.599 28065.5C520.92 28060.3 511.435 28056.7 502.755 28051.5C493.739 28046.3 484.104 28042.3 475.239 28036.9C461.932 28030.6 449.324 28023 435.98 28016.7C427.261 28011.6 418.122 28007.3 409.172 28002.6C400.331 27997.2 390.595 27993.4 381.704 27988.1C373.743 27983.4 365.149 27980.1 357.224 27975.4C349.362 27970.6 340.746 27967.3 332.883 27962.6C322.157 27956.2 310.08 27952.1 300.048 27944.6C297.406 27942.9 298.001 27939.6 297.852 27936.9C298.064 27914.2 297.892 27891.6 297.915 27868.9C297.567 27865.8 299.628 27863.2 302.195 27861.8C306.471 27860.3 310.365 27863.4 313.888 27865.4C449.074 27937.4 584.37 28009.3 719.573 28081.3C727.296 28085.4 735.691 28088.9 741.88 28095.3L741.88 28100.7C736.733 28108.9 726.701 28111.6 718.743 28116.3C581.635 28189.3 444.408 28262.2 307.351 28335.3L307.351 28335.3Z" fill="white"/>
<path d="M395.849 15008.9L635.689 15083.4L635.689 15135.6L458.529 15183.9L635.689 15232.2L635.689 15284.5L395.849 15359.3L395.849 15308.9L588.678 15258.8L395.849 15207.9L395.849 15156.1L587.808 15107.3L395.849 15057.7L395.849 15008.9ZM395.849 14649.8L635.689 14724.2L635.689 14776.4L458.529 14824.7L635.689 14873.1L635.689 14925.3L395.849 15000.2L395.849 14949.7L588.678 14899.6L395.849 14848.7L395.849 14796.9L587.808 14748.1L395.849 14698.5L395.849 14649.8ZM395.849 14290.6L635.689 14365L635.689 14417.2L458.529 14465.5L635.689 14513.9L635.689 14566.1L395.849 14641L395.849 14590.5L588.678 14540.4L395.849 14489.5L395.849 14437.7L587.808 14388.9L395.849 14339.3L395.849 14290.6ZM638.736 14233.5C638.736 14242.4 635.689 14250 629.595 14256.1C623.501 14262.2 615.956 14265.2 606.96 14265.2C597.964 14265.2 590.42 14262.2 584.326 14256.1C578.232 14250 575.185 14242.4 575.185 14233.5C575.185 14224.7 578.232 14217.3 584.326 14211.3C590.419 14205.2 597.964 14202.1 606.96 14202.1C615.956 14202.1 623.501 14205.2 629.595 14211.3C635.689 14217.3 638.736 14224.7 638.736 14233.5ZM431.542 14098.9C419.934 14090.4 410.503 14079 403.248 14064.5C395.704 14049.7 391.931 14033.3 391.931 14015.3C391.931 13994.1 397.009 13974.9 407.166 13957.8C417.322 13940.7 431.832 13927.2 450.694 13917.3C469.266 13907.5 490.595 13902.5 514.68 13902.5C538.766 13902.5 560.385 13907.5 579.537 13917.3C598.4 13927.2 613.199 13940.9 623.936 13958.3C634.383 13975.4 639.606 13994.4 639.606 14015.3C639.606 14033.9 635.979 14050.4 628.724 14064.9C621.47 14079.1 612.184 14090.4 600.866 14098.9L635.689 14098.9L635.689 14148.5L313.58 14148.5L313.58 14098.9L431.542 14098.9ZM514.68 13953C498.14 13953 483.921 13956.5 472.023 13963.5C459.835 13970.2 450.694 13979.2 444.6 13990.5C438.216 14001.5 435.024 14013.4 435.024 14026.2C435.024 14038.6 438.216 14050.5 444.6 14061.9C450.984 14072.9 460.27 14081.9 472.458 14088.8C484.646 14095.5 499.01 14098.9 515.551 14098.9C532.092 14098.9 546.601 14095.5 559.079 14088.8C571.267 14081.9 580.553 14072.9 586.937 14061.9C593.321 14050.5 596.513 14038.6 596.513 14026.2C596.513 14013.4 593.321 14001.5 586.937 13990.5C580.263 13979.2 570.687 13970.2 558.209 13963.5C545.731 13956.5 531.221 13953 514.68 13953ZM431.542 13803.9C419.934 13795.4 410.503 13784 403.248 13769.5C395.703 13754.7 391.931 13738.3 391.931 13720.3C391.931 13699.1 397.009 13679.9 407.166 13662.8C417.322 13645.7 431.832 13632.2 450.694 13622.3C469.266 13612.5 490.595 13607.5 514.68 13607.5C538.766 13607.5 560.385 13612.5 579.537 13622.3C598.4 13632.2 613.199 13645.8 623.936 13663.3C634.383 13680.4 639.606 13699.4 639.606 13720.3C639.606 13738.9 635.979 13755.4 628.724 13769.9C621.47 13784.1 612.184 13795.4 600.866 13803.9L635.689 13803.9L635.689 13853.5L313.58 13853.5L313.58 13803.9L431.542 13803.9ZM514.68 13658C498.14 13658 483.921 13661.5 472.023 13668.5C459.835 13675.2 450.694 13684.2 444.6 13695.5C438.216 13706.5 435.024 13718.4 435.024 13731.2C435.024 13743.6 438.216 13755.5 444.6 13766.9C450.984 13777.9 460.27 13786.9 472.458 13793.8C484.646 13800.5 499.01 13803.9 515.551 13803.9C532.092 13803.9 546.601 13800.5 559.079 13793.8C571.267 13786.9 580.553 13777.9 586.937 13766.9C593.321 13755.5 596.513 13743.6 596.513 13731.2C596.513 13718.4 593.321 13706.5 586.937 13695.5C580.263 13684.2 570.687 13675.2 558.209 13668.5C545.731 13661.5 531.221 13658 514.68 13658ZM591.29 13465.8L395.849 13397.9L395.849 13345.2L635.689 13436.6L635.689 13495.8L395.849 13586.8L395.849 13533.7L591.29 13465.8ZM514.68 13324.2C490.595 13324.2 469.266 13319.3 450.694 13309.4C432.122 13299.3 417.758 13285.6 407.601 13268.5C397.154 13251.1 391.931 13231.9 391.931 13211C391.931 13192.2 395.703 13175.8 403.248 13161.9C410.503 13147.6 419.644 13136.3 430.671 13127.9L395.849 13127.9L395.849 13077.8L635.689 13077.8L635.689 13127.9L599.996 13127.9C611.313 13136.3 620.744 13147.8 628.289 13162.3C635.834 13176.8 639.606 13193.3 639.606 13211.9C639.606 13232.5 634.383 13251.4 623.936 13268.5C613.199 13285.6 598.4 13299.3 579.537 13309.4C560.385 13319.3 538.766 13324.2 514.68 13324.2ZM515.551 13127.9C499.01 13127.9 484.646 13131.4 472.458 13138.3C460.27 13145 450.984 13153.9 444.6 13164.9C438.216 13175.9 435.024 13187.8 435.024 13200.6C435.024 13213.4 438.216 13225.3 444.6 13236.3C450.694 13247.3 459.835 13256.3 472.023 13263.3C483.921 13269.9 498.14 13273.3 514.68 13273.3C531.221 13273.3 545.731 13269.9 558.209 13263.3C570.687 13256.3 580.263 13247.3 586.937 13236.3C593.321 13225 596.513 13213.1 596.513 13200.6C596.513 13187.8 593.321 13175.9 586.937 13164.9C580.553 13153.9 571.267 13145 559.079 13138.3C546.601 13131.4 532.092 13127.9 515.551 13127.9ZM638.736 12992.6C638.736 13001.6 635.689 13009.2 629.595 13015.3C623.501 13021.4 615.956 13024.4 606.96 13024.4C597.964 13024.4 590.419 13021.4 584.325 13015.3C578.232 13009.2 575.185 13001.6 575.185 12992.6C575.185 12983.9 578.232 12976.5 584.325 12970.4C590.419 12964.4 597.964 12961.3 606.96 12961.3C615.956 12961.3 623.501 12964.4 629.595 12970.4C635.689 12976.5 638.736 12983.9 638.736 12992.6ZM391.931 12617.3C391.931 12598.5 395.849 12581.6 403.684 12566.8C411.519 12551.8 423.126 12540 438.506 12531.6C453.886 12522.9 472.458 12518.5 494.222 12518.5L635.689 12518.5L635.689 12567.7L501.622 12567.7C480.148 12567.7 463.752 12573.1 452.435 12583.8C440.828 12594.6 435.024 12609.2 435.024 12627.8C435.024 12646.4 440.828 12661.2 452.435 12672.2C463.752 12682.9 480.148 12688.3 501.622 12688.3L635.689 12688.3L635.689 12737.5L501.622 12737.5C480.148 12737.5 463.752 12742.8 452.435 12753.6C440.828 12764.3 435.024 12779 435.024 12797.5C435.024 12816.1 440.828 12830.9 452.435 12841.9C463.752 12852.7 480.148 12858.1 501.622 12858.1L635.689 12858.1L635.689 12907.7L395.849 12907.7L395.849 12858.1L423.271 12858.1C413.405 12849.9 405.715 12839.6 400.201 12827.1C394.688 12814.7 391.931 12801.3 391.931 12787.1C391.931 12767.9 395.994 12750.8 404.119 12735.7C412.244 12720.6 423.997 12709 439.377 12700.9C424.867 12693.7 413.405 12682.3 404.989 12667C396.284 12651.6 391.931 12635 391.931 12617.3ZM514.245 12352.7L635.689 12275.2L635.689 12331.3L554.291 12383.1L635.689 12431.9L635.689 12483.7L517.727 12406.2L395.849 12483.7L395.849 12427.5L477.246 12375.7L395.849 12327L395.849 12275.2L514.245 12352.7Z" fill="white"/>
<path d="M233.471 17667.9L233.471 17662.4C237.662 17655.8 245.537 17653.3 252.06 17649.7C345.83 17599.9 439.559 17550 533.304 17500.1C578.973 17476 624.399 17451.3 670.192 17427.5L671.085 17427.5C673.665 17428.9 677.72 17430 677.36 17433.7C677.436 17457.9 677.485 17482.2 677.337 17506.4C677.571 17512.3 671.198 17513.8 667.093 17516C658.684 17520.4 650.488 17525.2 641.858 17529.2C630.265 17536 617.914 17541.3 606.334 17548.1C594.876 17553.3 584.249 17560.1 572.814 17565.4C565.894 17568.6 559.52 17572.9 552.591 17576.1C542.297 17580.9 532.761 17587.1 522.395 17591.7C510.219 17598.7 497.409 17604.5 485.23 17611.5C474.317 17616.4 464.262 17623 453.374 17627.9C445.885 17631.4 439.001 17636 431.49 17639.5C421.742 17644 412.775 17649.9 402.931 17654.2C399.123 17656.4 393.828 17657.8 392.303 17662.3C392.068 17665.2 391.337 17669.3 394.45 17670.9C406.639 17678.5 419.942 17684 432.292 17691.3C443.74 17696.5 454.364 17703.3 465.798 17708.5C472.444 17711.6 478.57 17715.7 485.192 17718.9C490.166 17721.2 495.124 17723.7 499.875 17726.5C508.306 17731.4 517.495 17735 525.89 17740C533.256 17744.4 541.303 17747.6 548.669 17751.9C556.27 17756.5 564.602 17759.8 572.23 17764.3C580.909 17769.5 590.395 17773.1 599.064 17778.3C606.43 17782.7 614.465 17785.8 621.831 17790.2C629.432 17794.8 637.764 17798 645.392 17802.6C653.561 17807.4 662.416 17811 670.725 17815.6C673.193 17817.2 676.292 17818.7 677.01 17821.8C677.853 17826.5 677.357 17831.4 677.42 17836.2C677.406 17854.7 677.347 17873.2 677.482 17891.8C677.42 17895.1 677.47 17899.1 674.569 17901.4C671.406 17902.2 667.983 17901.9 665.195 17900.2C522.905 17824.6 380.708 17748.8 238.443 17673.2C236.263 17672 234.824 17669.9 233.472 17667.9L233.471 17667.9ZM301.807 19112.9C296.317 19107.7 298.113 19099.8 297.927 19093.1C297.964 19025.6 297.927 18958.1 297.941 18890.6C297.269 18870.8 300.282 18850.7 307.265 18832.1C318.561 18800.7 343.93 18773.7 376.197 18763.6C388.435 18759.1 401.607 18758.1 414.503 18757.2C428.315 18758 442.353 18759.7 455.287 18764.9C470.426 18771.1 485.01 18780.1 494.744 18793.5C497.88 18796.8 499.209 18801.8 503.152 18804.1C509.625 18786.3 521.886 18770.9 536.854 18759.3C561.853 18740.3 594.937 18735 625.628 18738.2C645.864 18739.9 665.952 18745.7 683.378 18756.3C694.213 18763.3 704.145 18772 711.685 18782.5C728.798 18805.4 736.683 18833.9 739.931 18861.9C740.715 18867.7 740.292 18873.6 741.88 18879.2L741.88 19107.7C740.342 19109.6 738.632 19111.4 736.67 19112.9L301.806 19112.9M365.383 19037.1C368.036 19039.3 371.658 19038.7 374.833 19038.8C407.781 19038.6 440.738 19039.1 473.676 19038.6C476.196 19036.6 477.92 19033.5 477.744 19030.2C477.78 18986.6 477.694 18942.9 477.793 18899.3C478.055 18893.2 476.777 18887.2 475.935 18881.3C473.95 18867.7 468.555 18854.1 458.265 18844.6C451.792 18838.2 442.812 18835.2 434.133 18833C427.104 18832.5 420.045 18830.2 413.026 18832.2C401.149 18833.1 389.605 18837.9 380.787 18846C370.569 18857.2 365.684 18872.2 363.884 18887C363.414 18891.8 364.122 18896.6 363.18 18901.3C361.913 18907.1 362.521 18913.1 362.449 18919C362.409 18954.9 362.485 18990.7 362.398 19026.5C362.398 19030.2 363.428 19033.9 365.386 19037.1M543.875 19034.7C544.335 19036.2 545.202 19037.6 546.776 19038C551.886 19040.6 557.764 19040.1 563.318 19040.1C597.221 19040 631.125 19040.1 665.022 19040C669.872 19039.9 676.742 19037.3 676.146 19031.4C676.169 18985.3 676.12 18939.2 676.16 18893.1C676.318 18888.5 676.16 18883.9 675.316 18879.3C673.927 18863.1 670.665 18846.3 661.279 18832.6C653.466 18821.6 640.547 18815.6 627.537 18813.2C612.52 18810.1 596.808 18811.3 582.152 18815.6C570.844 18819.5 560.54 18827.2 555.059 18838C547.196 18852.2 544.842 18868.5 543.475 18884.5C543.488 18933 543.488 18981.6 543.475 19030.2C543.44 19031.7 543.573 19033.2 543.872 19034.7L543.875 19034.7ZM298.288 18663C297.445 18657.8 298.04 18652.6 297.941 18647.4C297.927 18575.8 297.977 18504.2 297.915 18432.5C299.578 18400.2 310.946 18367.3 334.137 18343.9C351.783 18326.1 375.999 18315.4 400.836 18312.8C410.67 18312.9 420.53 18312.4 430.35 18313.1C451.43 18316.2 472.659 18324.4 487.414 18340.2C492.114 18344.7 496.481 18349.5 499.653 18355.2C500.644 18356.4 501.14 18358.9 503.152 18358.2C510.591 18340 523.028 18323.6 539.235 18312.3C545.92 18307.4 553.458 18303.9 560.986 18300.6C576.126 18293.9 592.879 18292.6 609.199 18291.7C621.821 18292.5 634.556 18293.2 646.907 18296.2C668.433 18300.6 688.385 18311.8 703.736 18327.3C709.008 18333.7 714.29 18340.1 718.481 18347.3C730.855 18367.4 736.574 18390.8 739.647 18414C740.752 18420.5 740.157 18427.1 741.88 18433.5L741.88 18661.9C739.797 18665.4 736.511 18668.9 731.983 18668.4C590.607 18668.4 449.223 18668.4 307.847 18668.4C303.941 18668.6 300.269 18666.2 298.288 18663M362.867 18586.5C363.426 18588.8 364.293 18591.4 366.562 18592.7C369.701 18594.9 373.717 18594.3 377.325 18594.4C407.508 18594.2 437.691 18594.3 467.861 18594.3C471.794 18594.5 475.191 18591.9 477.434 18589C478.218 18580.1 477.523 18571.1 477.745 18562.2C477.722 18524.3 477.794 18486.5 477.722 18448.6C476.283 18435.9 474.619 18422.7 467.825 18411.6C462.642 18400.1 451.418 18392.8 439.798 18388.9C430.401 18386 420.468 18387 410.783 18387C403.913 18387.8 397.155 18390 390.98 18393.1C375.639 18402 367.184 18419.1 364.69 18436.2C363.004 18442.9 364.393 18449.8 363.004 18456.5C362.001 18461.7 362.497 18466.9 362.448 18472.1C362.408 18508.7 362.485 18545.4 362.398 18582C362.408 18583.5 362.557 18585 362.867 18586.5ZM543.898 18589C544.702 18592.6 548.597 18594.5 552.117 18594.3C587.681 18594.3 623.232 18594.3 658.784 18594.3C663.313 18594.3 668.036 18594.8 672.339 18593C675.379 18592.1 676.07 18588.4 676.133 18585.7C676.196 18538.8 676.084 18491.8 676.196 18444.9C676.507 18438.7 674.906 18432.7 674.621 18426.5C672.636 18410.7 668.062 18394.4 657.273 18382.2C647.538 18372.6 633.911 18367.9 620.445 18366.9C613.774 18365.6 606.94 18365.3 600.269 18366.7C585.166 18367.9 569.044 18373.2 559.61 18385.6C547.915 18400.7 545.212 18420.3 543.475 18438.7C543.489 18485.6 543.489 18532.6 543.475 18579.5C543.551 18582.6 543.214 18585.9 543.899 18589L543.898 18589ZM307.351 18289C302.812 18291.2 297.355 18286.8 297.914 18282C297.9 18258.9 298.026 18235.8 297.864 18212.8C297.728 18210.1 298.112 18207.1 300.742 18205.7C309.173 18200.2 318.261 18195.8 327.302 18191.4C333.081 18188.6 338.439 18185.1 344.218 18182.3C355.365 18177.2 365.717 18170.5 376.891 18165.5C388.484 18158.7 400.835 18153.3 412.419 18146.5C424.942 18140.7 436.675 18133.3 449.234 18127.6C458.015 18122.6 467.029 18118.1 476.068 18113.5C485.43 18107.8 495.7 18103.7 505.11 18098.1C512.03 18094.1 519.482 18091.2 526.326 18087.1C534.995 18081.9 544.495 18078.2 553.148 18073C561.831 18067.9 571.403 18064.4 579.846 18058.8C584.534 18056.4 584.548 18048.2 579.846 18045.7C571.39 18040.2 561.831 18036.7 553.148 18031.6C545.56 18027 537.237 18023.7 529.599 18019.2C520.92 18014 511.435 18010.4 502.755 18005.2C493.739 18000 484.104 17996 475.239 17990.6C461.932 17984.3 449.324 17976.7 435.98 17970.4C427.261 17965.3 418.122 17961 409.172 17956.3C400.331 17950.9 390.595 17947.1 381.704 17941.8C373.743 17937.1 365.149 17933.8 357.224 17929.1C349.362 17924.3 340.746 17921 332.883 17916.3C322.157 17909.9 310.08 17905.8 300.048 17898.3C297.406 17896.6 298.001 17893.3 297.852 17890.6C298.064 17867.9 297.892 17845.3 297.915 17822.6C297.567 17819.5 299.628 17816.9 302.195 17815.5C306.471 17814 310.365 17817.1 313.888 17819.1C449.074 17891.1 584.37 17963 719.573 18035C727.296 18039.1 735.691 18042.6 741.88 18049L741.88 18054.4C736.733 18062.6 726.701 18065.3 718.743 18070C581.635 18143 444.408 18215.9 307.351 18289L307.351 18289Z" fill="white"/>
<path d="M395.849 4962.64L635.689 5037.08L635.689 5089.31L458.529 5137.63L635.689 5185.94L635.689 5238.18L395.849 5313.05L395.849 5262.55L588.678 5212.5L395.849 5161.57L395.849 5109.77L587.808 5061.02L395.849 5011.4L395.849 4962.64ZM395.849 4603.45L635.689 4677.88L635.689 4730.12L458.529 4778.43L635.689 4826.75L635.689 4878.98L395.849 4953.85L395.849 4903.36L588.678 4853.3L395.849 4802.38L395.849 4750.58L587.808 4701.83L395.849 4652.2L395.849 4603.45ZM395.849 4244.26L635.689 4318.69L635.689 4370.93L458.529 4419.24L635.689 4467.56L635.689 4519.79L395.849 4594.66L395.849 4544.17L588.678 4494.11L395.849 4443.18L395.849 4391.38L587.808 4342.63L395.849 4293.01L395.849 4244.26ZM638.736 4187.15C638.736 4196.15 635.689 4203.69 629.595 4209.79C623.501 4215.88 615.956 4218.93 606.96 4218.93C597.964 4218.93 590.42 4215.88 584.326 4209.79C578.232 4203.69 575.185 4196.15 575.185 4187.15C575.185 4178.45 578.232 4171.05 584.326 4164.95C590.419 4158.86 597.964 4155.81 606.96 4155.81C615.956 4155.81 623.501 4158.86 629.595 4164.95C635.689 4171.05 638.736 4178.45 638.736 4187.15ZM431.542 4052.56C419.934 4044.14 410.503 4032.68 403.248 4018.17C395.704 4003.37 391.931 3986.98 391.931 3968.98C391.931 3947.8 397.009 3928.65 407.166 3911.53C417.322 3894.41 431.832 3880.91 450.694 3871.05C469.266 3861.18 490.595 3856.25 514.68 3856.25C538.766 3856.25 560.385 3861.18 579.537 3871.05C598.4 3880.91 613.199 3894.55 623.936 3911.96C634.383 3929.08 639.606 3948.09 639.606 3968.98C639.606 3987.56 635.979 4004.1 628.724 4018.61C621.47 4032.83 612.184 4044.14 600.866 4052.56L635.689 4052.56L635.689 4102.18L313.58 4102.18L313.58 4052.56L431.542 4052.56ZM514.68 3906.74C498.14 3906.74 483.921 3910.22 472.023 3917.19C459.835 3923.86 450.694 3932.86 444.6 3944.17C438.216 3955.2 435.024 3967.1 435.024 3979.87C435.024 3992.34 438.216 4004.24 444.6 4015.56C450.984 4026.59 460.27 4035.58 472.458 4042.55C484.646 4049.22 499.01 4052.56 515.551 4052.56C532.092 4052.56 546.601 4049.22 559.079 4042.55C571.267 4035.58 580.553 4026.59 586.937 4015.56C593.321 4004.24 596.513 3992.34 596.513 3979.87C596.513 3967.1 593.321 3955.2 586.937 3944.17C580.263 3932.86 570.687 3923.86 558.209 3917.19C545.731 3910.22 531.221 3906.74 514.68 3906.74ZM431.542 3757.55C419.934 3749.14 410.503 3737.68 403.248 3723.17C395.703 3708.37 391.931 3691.97 391.931 3673.98C391.931 3652.8 397.009 3633.64 407.166 3616.52C417.322 3599.4 431.832 3585.91 450.694 3576.04C469.266 3566.17 490.595 3561.24 514.68 3561.24C538.766 3561.24 560.385 3566.17 579.537 3576.04C598.4 3585.91 613.199 3599.55 623.936 3616.96C634.383 3634.08 639.606 3653.09 639.606 3673.98C639.606 3692.55 635.979 3709.09 628.724 3723.6C621.47 3737.82 612.184 3749.14 600.866 3757.55L635.689 3757.55L635.689 3807.18L313.58 3807.18L313.58 3757.55L431.542 3757.55ZM514.68 3611.73C498.14 3611.73 483.921 3615.22 472.023 3622.18C459.835 3628.85 450.694 3637.85 444.6 3649.17C438.216 3660.2 435.024 3672.09 435.024 3684.86C435.024 3697.34 438.216 3709.24 444.6 3720.55C450.984 3731.58 460.27 3740.58 472.458 3747.54C484.646 3754.22 499.01 3757.55 515.551 3757.55C532.092 3757.55 546.601 3754.22 559.079 3747.54C571.267 3740.58 580.553 3731.58 586.937 3720.55C593.321 3709.24 596.513 3697.34 596.513 3684.86C596.513 3672.09 593.321 3660.2 586.937 3649.17C580.263 3637.85 570.687 3628.85 558.209 3622.18C545.731 3615.22 531.221 3611.73 514.68 3611.73ZM591.29 3419.45L395.849 3351.55L395.849 3298.88L635.689 3390.29L635.689 3449.49L395.849 3540.46L395.849 3487.36L591.29 3419.45ZM514.68 3277.91C490.595 3277.91 469.266 3272.98 450.694 3263.11C432.122 3252.96 417.758 3239.32 407.601 3222.2C397.154 3204.79 391.931 3185.63 391.931 3164.74C391.931 3145.88 395.703 3129.48 403.248 3115.55C410.503 3101.33 419.644 3090.02 430.671 3081.6L395.849 3081.6L395.849 3031.54L635.689 3031.54L635.689 3081.6L599.996 3081.6C611.313 3090.02 620.744 3101.48 628.289 3115.99C635.834 3130.5 639.606 3147.04 639.606 3165.61C639.606 3186.21 634.383 3205.08 623.936 3222.2C613.199 3239.32 598.4 3252.96 579.537 3263.11C560.385 3272.98 538.766 3277.91 514.68 3277.91ZM515.551 3081.6C499.01 3081.6 484.646 3085.08 472.458 3092.05C460.27 3098.72 450.984 3107.57 444.6 3118.6C438.216 3129.63 435.024 3141.53 435.024 3154.29C435.024 3167.06 438.216 3178.96 444.6 3189.99C450.694 3201.01 459.835 3210.01 472.023 3216.97C483.921 3223.65 498.14 3226.99 514.68 3226.99C531.221 3226.99 545.731 3223.65 558.209 3216.97C570.687 3210.01 580.263 3201.01 586.937 3189.99C593.321 3178.67 596.513 3166.77 596.513 3154.29C596.513 3141.53 593.321 3129.63 586.937 3118.6C580.553 3107.57 571.267 3098.72 559.079 3092.05C546.601 3085.08 532.092 3081.6 515.551 3081.6ZM638.736 2946.34C638.736 2955.34 635.689 2962.89 629.595 2968.98C623.501 2975.07 615.956 2978.12 606.96 2978.12C597.964 2978.12 590.419 2975.07 584.325 2968.98C578.232 2962.89 575.185 2955.34 575.185 2946.34C575.185 2937.64 578.232 2930.24 584.325 2924.15C590.419 2918.05 597.964 2915 606.96 2915C615.956 2915 623.501 2918.05 629.595 2924.15C635.689 2930.24 638.736 2937.64 638.736 2946.34ZM391.931 2571.04C391.931 2552.18 395.849 2535.35 403.684 2520.55C411.519 2505.46 423.126 2493.7 438.506 2485.29C453.886 2476.58 472.458 2472.23 494.222 2472.23L635.689 2472.23L635.689 2521.42L501.622 2521.42C480.148 2521.42 463.752 2526.79 452.435 2537.52C440.828 2548.26 435.024 2562.91 435.024 2581.49C435.024 2600.06 440.828 2614.86 452.435 2625.89C463.752 2636.62 480.148 2641.99 501.622 2641.99L635.689 2641.99L635.689 2691.18L501.622 2691.18C480.148 2691.18 463.752 2696.55 452.435 2707.28C440.828 2718.02 435.024 2732.67 435.024 2751.25C435.024 2769.82 440.828 2784.62 452.435 2795.65C463.752 2806.38 480.148 2811.75 501.622 2811.75L635.689 2811.75L635.689 2861.37L395.849 2861.37L395.849 2811.75L423.271 2811.75C413.405 2803.63 405.715 2793.32 400.201 2780.85C394.688 2768.37 391.931 2755.02 391.931 2740.8C391.931 2721.65 395.994 2704.53 404.119 2689.44C412.244 2674.35 423.997 2662.74 439.377 2654.61C424.867 2647.36 413.405 2636.04 404.989 2620.66C396.284 2605.28 391.931 2588.74 391.931 2571.04ZM514.245 2306.36L635.689 2228.88L635.689 2285.03L554.291 2336.83L635.689 2385.58L635.689 2437.38L517.727 2359.9L395.849 2437.38L395.849 2381.23L477.246 2329.43L395.849 2280.68L395.849 2228.88L514.245 2306.36Z" fill="white"/>
<path d="M233.471 7621.6L233.471 7616.08C237.662 7609.51 245.537 7607.01 252.06 7603.4C345.83 7553.56 439.559 7503.66 533.304 7453.76C578.973 7429.65 624.399 7405.04 670.192 7381.18L671.085 7381.18C673.665 7382.6 677.72 7383.73 677.36 7387.4C677.436 7411.63 677.485 7435.91 677.337 7460.13C677.571 7465.95 671.198 7467.52 667.093 7469.71C658.684 7474.12 650.488 7478.88 641.858 7482.85C630.265 7489.65 617.914 7495.01 606.334 7501.81C594.876 7507.04 584.249 7513.79 572.814 7519.05C565.894 7522.3 559.52 7526.57 552.591 7529.8C542.297 7534.57 532.761 7540.76 522.395 7545.4C510.219 7552.4 497.409 7558.19 485.23 7565.19C474.317 7570.11 464.262 7576.65 453.374 7581.62C445.885 7585.08 439.001 7589.73 431.49 7593.17C421.742 7597.67 412.775 7603.64 402.931 7607.93C399.123 7610.06 393.828 7611.53 392.303 7616.03C392.068 7618.92 391.337 7622.96 394.45 7624.59C406.639 7632.15 419.942 7637.68 432.292 7644.96C443.74 7650.18 454.364 7656.98 465.798 7662.21C472.444 7665.32 478.57 7669.41 485.192 7672.55C490.166 7674.93 495.124 7677.35 499.875 7680.17C508.306 7685.14 517.495 7688.7 525.89 7693.74C533.256 7698.13 541.303 7701.26 548.669 7705.64C556.27 7710.24 564.602 7713.45 572.23 7717.98C580.909 7723.17 590.395 7726.83 599.064 7732.03C606.43 7736.41 614.465 7739.52 621.831 7743.92C629.432 7748.52 637.764 7751.73 645.392 7756.26C653.561 7761.14 662.416 7764.72 670.725 7769.31C673.193 7770.88 676.292 7772.39 677.01 7775.47C677.853 7780.21 677.357 7785.07 677.42 7789.86C677.406 7808.39 677.347 7826.93 677.482 7845.46C677.42 7848.81 677.47 7852.84 674.569 7855.14C671.406 7855.85 667.983 7855.59 665.195 7853.88C522.905 7778.28 380.708 7702.52 238.443 7626.85C236.263 7625.69 234.824 7623.6 233.472 7621.59L233.471 7621.6ZM301.807 9066.58C296.317 9061.4 298.113 9053.53 297.927 9046.83C297.964 8979.33 297.927 8911.85 297.941 8844.34C297.269 8824.49 300.282 8804.39 307.265 8785.75C318.561 8754.39 343.93 8727.4 376.197 8717.25C388.435 8712.76 401.607 8711.79 414.503 8710.88C428.315 8711.71 442.353 8713.38 455.287 8718.57C470.426 8724.81 485.01 8733.81 494.744 8747.23C497.88 8750.47 499.209 8755.48 503.152 8757.84C509.625 8739.98 521.886 8724.62 536.854 8713.04C561.853 8694 594.937 8688.71 625.628 8691.94C645.864 8693.65 665.952 8699.44 683.378 8709.96C694.213 8716.98 704.145 8725.65 711.685 8736.17C728.798 8759.13 736.683 8787.55 739.931 8815.62C740.715 8821.37 740.292 8827.28 741.88 8832.92L741.88 9061.44C740.342 9063.34 738.632 9065.11 736.67 9066.59L301.806 9066.59M365.383 8990.83C368.036 8992.99 371.658 8992.4 374.833 8992.52C407.781 8992.32 440.738 8992.81 473.676 8992.27C476.196 8990.26 477.92 8987.17 477.744 8983.9C477.78 8940.27 477.694 8896.62 477.793 8852.99C478.055 8846.92 476.777 8840.94 475.935 8834.95C473.95 8821.37 468.555 8807.8 458.265 8798.33C451.792 8791.85 442.812 8788.9 434.133 8786.71C427.104 8786.18 420.045 8783.94 413.026 8785.89C401.149 8786.83 389.605 8791.64 380.787 8799.65C370.569 8810.87 365.684 8825.9 363.884 8840.71C363.414 8845.46 364.122 8850.27 363.18 8854.98C361.913 8860.83 362.521 8866.82 362.449 8872.74C362.409 8908.56 362.485 8944.38 362.398 8980.18C362.398 8983.91 363.428 8987.64 365.386 8990.83M543.875 8988.4C544.335 8989.85 545.202 8991.25 546.776 8991.69C551.886 8994.32 557.764 8993.78 563.318 8993.75C597.221 8993.7 631.125 8993.79 665.022 8993.72C669.872 8993.65 676.742 8990.95 676.146 8985.14C676.169 8939.03 676.12 8892.92 676.16 8846.82C676.318 8842.19 676.16 8837.56 675.316 8832.99C673.927 8816.77 670.665 8799.97 661.279 8786.3C653.466 8775.32 640.547 8769.28 627.537 8766.93C612.52 8763.82 596.808 8764.98 582.152 8769.33C570.844 8773.22 560.54 8780.9 555.059 8791.66C547.196 8805.89 544.842 8822.21 543.475 8838.15C543.488 8886.73 543.488 8935.32 543.475 8983.91C543.44 8985.41 543.573 8986.92 543.872 8988.4L543.875 8988.4ZM298.288 8616.68C297.445 8611.54 298.04 8606.29 297.941 8601.11C297.927 8529.49 297.977 8457.87 297.915 8386.24C299.578 8353.87 310.946 8320.98 334.137 8297.59C351.783 8279.81 375.999 8269.1 400.836 8266.53C410.67 8266.58 420.53 8266.12 430.35 8266.8C451.43 8269.87 472.659 8278.12 487.414 8293.93C492.114 8298.39 496.481 8303.25 499.653 8308.93C500.644 8310.1 501.14 8312.58 503.152 8311.85C510.591 8293.68 523.028 8277.27 539.235 8265.97C545.92 8261.12 553.458 8257.63 560.986 8254.27C576.126 8247.59 592.879 8246.34 609.199 8245.36C621.821 8246.19 634.556 8246.95 646.907 8249.94C668.433 8254.32 688.385 8265.46 703.736 8281.03C709.008 8287.39 714.29 8293.81 718.481 8300.95C730.855 8321.08 736.574 8344.5 739.647 8367.69C740.752 8374.15 740.157 8380.82 741.88 8387.21L741.88 8615.57C739.797 8619.13 736.511 8622.57 731.983 8622.12C590.607 8622.09 449.223 8622.09 307.847 8622.12C303.941 8622.26 300.269 8619.94 298.288 8616.67M362.867 8540.17C363.426 8542.54 364.293 8545.12 366.562 8546.39C369.701 8548.6 373.717 8547.97 377.325 8548.06C407.508 8547.95 437.691 8548.02 467.861 8548.04C471.794 8548.24 475.191 8545.64 477.434 8542.65C478.218 8533.77 477.523 8524.82 477.745 8515.91C477.722 8478.03 477.794 8440.16 477.722 8402.28C476.283 8389.57 474.619 8376.42 467.825 8365.27C462.642 8353.79 451.418 8346.53 439.798 8342.63C430.401 8339.69 420.468 8340.7 410.783 8340.65C403.913 8341.49 397.155 8343.68 390.98 8346.79C375.639 8355.69 367.184 8372.84 364.69 8389.86C363.004 8396.55 364.393 8403.5 363.004 8410.22C362.001 8415.35 362.497 8420.59 362.448 8425.76C362.408 8462.4 362.485 8499.05 362.398 8535.69C362.408 8537.21 362.557 8538.7 362.867 8540.17ZM543.898 8542.65C544.702 8546.33 548.597 8548.19 552.117 8548C587.681 8548.02 623.232 8547.97 658.784 8548.02C663.313 8547.97 668.036 8548.47 672.339 8546.71C675.379 8545.84 676.07 8542.13 676.133 8539.39C676.196 8492.47 676.084 8445.55 676.196 8398.61C676.507 8392.41 674.906 8386.35 674.621 8380.18C672.636 8364.36 668.062 8348.12 657.273 8335.93C647.538 8326.31 633.911 8321.6 620.445 8320.56C613.774 8319.33 606.94 8319.05 600.269 8320.42C585.166 8321.62 569.044 8326.87 559.61 8339.35C547.915 8354.43 545.212 8373.99 543.475 8392.41C543.489 8439.33 543.489 8486.26 543.475 8533.18C543.551 8536.34 543.214 8539.55 543.899 8542.65L543.898 8542.65ZM307.351 8242.65C302.812 8244.89 297.355 8240.47 297.914 8235.66C297.9 8212.6 298.026 8189.52 297.864 8166.45C297.728 8163.77 298.112 8160.81 300.742 8159.37C309.173 8153.9 318.261 8149.48 327.302 8145.09C333.081 8142.31 338.439 8138.76 344.218 8135.97C355.365 8130.85 365.717 8124.22 376.891 8119.15C388.484 8112.36 400.835 8106.99 412.419 8100.19C424.942 8094.37 436.675 8087.04 449.234 8081.29C458.015 8076.29 467.029 8071.75 476.068 8067.22C485.43 8061.46 495.7 8057.44 505.11 8051.76C512.03 8047.79 519.482 8044.86 526.326 8040.76C534.995 8035.56 544.495 8031.92 553.148 8026.72C561.831 8021.57 571.403 8018.07 579.846 8012.53C584.534 8010.05 584.548 8001.92 579.846 7999.43C571.39 7993.91 561.831 7990.41 553.148 7985.26C545.56 7980.67 537.237 7977.43 529.599 7972.91C520.92 7967.72 511.435 7964.07 502.755 7958.87C493.739 7953.73 484.104 7949.74 475.239 7944.32C461.932 7937.99 449.324 7930.36 435.98 7924.13C427.261 7919.01 418.122 7914.71 409.172 7910.04C400.331 7904.58 390.595 7900.8 381.704 7895.46C373.743 7890.84 365.149 7887.46 357.224 7882.78C349.362 7878.04 340.746 7874.73 332.883 7869.97C322.157 7863.63 310.08 7859.53 300.048 7852.02C297.406 7850.32 298.001 7846.97 297.852 7844.28C298.064 7821.62 297.892 7798.95 297.915 7776.3C297.567 7773.22 299.628 7770.63 302.195 7769.17C306.471 7767.73 310.365 7770.83 313.888 7772.78C449.074 7844.82 584.37 7916.66 719.573 7988.67C727.296 7992.8 735.691 7996.28 741.88 8002.66L741.88 8008.09C736.733 8016.28 726.701 8019.04 718.743 8023.71C581.635 8096.72 444.408 8169.57 307.351 8242.65L307.351 8242.65Z" fill="white"/>
<defs>
<filter id="filter0_d_716_4262" x="0.158661" y="0" width="975.031" height="32768" filterUnits="userSpaceOnUse" color-interpolation-filters="sRGB">
<feFlood flood-opacity="0" result="BackgroundImageFix"/>
<feColorMatrix in="SourceAlpha" type="matrix" values="0 0 0 0 0 0 0 0 0 0 0 0 0 0 0 0 0 0 127 0" result="hardAlpha"/>
<feOffset dy="227.482"/>
<feGaussianBlur stdDeviation="113.741"/>
<feComposite in2="hardAlpha" operator="out"/>
<feColorMatrix type="matrix" values="0 0 0 0 0 0 0 0 0 0 0 0 0 0 0 0 0 0 0.25 0"/>
<feBlend mode="normal" in2="BackgroundImageFix" result="effect1_dropShadow_716_4262"/>
<feBlend mode="normal" in="SourceGraphic" in2="effect1_dropShadow_716_4262" result="shape"/>
</filter>
</defs>
</svg>
